<svg width="1731" height="442" viewBox="0 0 1731 442" fill="none" xmlns="http://www.w3.org/2000/svg">
<g clip-path="url(#clip0_16_97)">
<path d="M510.7 397.354H234.43L259.169 354.43H433.822L356.845 221.075L346.496 203.235L330.923 176.229L327.917 170.956L255.227 45.0922L281.297 0L372.565 158.094L383.013 176.229L485.961 354.43L510.7 397.354Z" fill="url(#paint0_linear_16_97)"/>
<path d="M126.702 267.695L76.6322 354.43H221.962L197.174 397.354H0L229.305 0.197125L255.227 45.0922L153.609 221.075H298.939L272.032 267.695H126.702Z" fill="url(#paint1_linear_16_97)"/>
<path d="M585.066 85.2563V202.102H651.25V220.336H564.762V85.2563H585.066Z" fill="white"/>
<path d="M778.199 85.2563V103.49H702.108V141.634H770.954V159.474H702.108V202.151H777.607V220.385H681.805V85.3056H778.199V85.2563Z" fill="white"/>
<path d="M871.34 166.669V149.42H930.132V220.385H914.559L910.962 202.348C900.859 216.394 886.173 223.391 866.954 223.391C847.734 223.391 831.964 216.886 820.482 203.876C808.703 190.964 802.839 173.962 802.839 152.87C802.839 131.778 808.802 114.431 820.679 101.667C832.457 88.7554 848.227 82.2996 868.087 82.2996C884.646 82.2996 898.395 86.587 909.237 95.2112C919.98 103.934 926.436 115.515 928.604 129.905H907.758C905.886 120.788 901.352 113.593 894.206 108.271C887.06 102.948 878.436 100.287 868.333 100.287C854.781 100.287 844.038 105.018 836.104 114.529C828.022 123.893 823.98 136.657 823.98 152.87C823.98 169.084 828.022 181.847 836.104 191.211C844.334 200.673 855.225 205.453 868.728 205.453C880.506 205.453 890.411 201.806 898.494 194.463C906.576 187.268 910.814 178.004 911.208 166.767H871.389L871.34 166.669Z" fill="white"/>
<path d="M1083.79 220.336H1062.35L1049.1 185.248H988.382L975.273 220.336H954.23L1006.96 85.2563H1030.32L1083.84 220.336H1083.79ZM997.696 160.213L994.838 167.605H1042.44L1039.59 160.213C1032.88 143.507 1025.84 125.076 1018.54 104.821C1009.82 128.082 1002.87 146.562 997.696 160.213Z" fill="white"/>
<path d="M1160.62 223.391C1141.79 223.391 1126.47 216.985 1114.69 204.221C1102.81 191.556 1096.85 174.455 1096.85 152.821C1096.85 131.186 1102.71 114.184 1114.49 101.421C1126.27 88.6568 1141.6 82.2502 1160.57 82.2502C1175.5 82.2502 1188.32 86.242 1199.06 94.2256C1209.8 102.308 1216.7 114.283 1219.76 130.102H1199.26C1196.74 120.246 1192.06 112.805 1185.31 107.827C1178.56 102.85 1170.28 100.336 1160.57 100.336C1147.56 100.336 1137.16 105.067 1129.47 114.48C1121.74 123.893 1117.89 136.706 1117.89 152.919C1117.89 169.133 1121.74 181.897 1129.47 191.309C1137.21 200.722 1147.56 205.453 1160.57 205.453C1170.33 205.453 1179.05 202.496 1186.74 196.533C1194.18 190.57 1198.67 181.946 1200.19 170.562H1220.5C1218.87 187.367 1212.32 200.426 1200.93 209.642C1189.7 218.858 1176.19 223.49 1160.52 223.49L1160.62 223.391Z" fill="white"/>
<path d="M1311.67 113.544L1329.11 85.2563H1351.68L1300.48 166.472V220.336H1280.37V166.472L1228.97 85.2563H1251.94L1269.78 113.692C1271.8 116.993 1275.15 122.365 1279.83 129.806C1281.11 131.827 1282.49 134.193 1284.12 136.804C1285.7 139.466 1287.03 141.733 1288.11 143.556C1289.19 145.379 1290.08 146.956 1290.87 148.188C1297.33 136.952 1304.27 125.371 1311.72 113.494L1311.67 113.544Z" fill="white"/>
<path d="M673.033 262.274V290.907H601.871V315.399H666.577V342.356H601.871V368.722H672.835V397.354H569.838V262.274H673.033Z" fill="white"/>
<path d="M703.39 262.274H758.782C781.057 262.274 798.108 268.237 809.985 280.213C821.862 292.188 827.825 308.697 827.825 329.839C827.825 350.98 821.862 367.49 809.985 379.465C798.108 391.44 781.007 397.403 758.782 397.403H703.39V262.324V262.274ZM735.422 370.249H758.19C769.821 370.249 778.79 366.849 785.049 360.097C791.307 353.346 794.461 343.243 794.461 329.839C794.461 316.434 791.307 306.332 785.049 299.58C778.79 292.829 769.821 289.428 758.19 289.428H735.422V370.249Z" fill="white"/>
<path d="M914.708 400.409C897.114 400.409 882.971 395.678 872.227 386.167C861.484 376.952 856.112 363.547 856.112 345.954V262.274H888.194V346.299C888.194 354.923 890.511 361.428 895.143 365.913C899.775 370.397 906.28 372.664 914.757 372.664C923.233 372.664 929.788 370.397 934.469 365.913C939.151 361.428 941.467 354.874 941.467 346.299V262.274H973.549V345.954C973.549 363.301 968.325 376.705 957.878 386.167C947.43 395.629 933.04 400.409 914.708 400.409Z" fill="white"/>
<path d="M1069.11 400.409C1049 400.409 1032.74 394.003 1020.37 381.239C1007.95 368.475 1001.79 351.325 1001.79 329.839C1001.79 308.352 1007.85 290.907 1020.02 278.241C1032.14 265.576 1048.55 259.268 1069.15 259.268C1085.86 259.268 1100 263.703 1111.63 272.525C1123.51 281.494 1130.66 294.208 1133.07 310.668H1100.65C1098.62 303.079 1094.88 297.215 1089.36 293.124C1083.84 289.034 1077.14 286.964 1069.15 286.964C1058.26 286.964 1049.89 290.709 1044.02 298.151C1038.16 305.592 1035.2 316.188 1035.2 329.839C1035.2 343.49 1038.16 354.036 1044.02 361.526C1049.89 369.017 1058.26 372.713 1069.15 372.713C1077.48 372.713 1084.58 370.298 1090.39 365.518C1096.21 360.689 1099.86 354.036 1101.38 345.411H1133.47C1131.45 362.857 1124.55 376.409 1112.77 386.019C1100.89 395.629 1086.35 400.459 1069.15 400.459L1069.11 400.409Z" fill="white"/>
<path d="M1285.6 397.354H1251.64L1243.66 373.847H1187.53L1179.74 397.354H1146.92L1196.64 262.274H1234.79L1285.65 397.354H1285.6ZM1204.18 323.974L1196.4 347.137H1234.54L1226.76 323.974C1224.34 317.124 1220.55 305.74 1215.37 289.823C1208.67 310.422 1204.92 321.806 1204.18 323.974Z" fill="white"/>
<path d="M1396.73 345.411H1428.81C1426.94 361.231 1420.92 373.896 1410.87 383.456C1400.82 393.017 1388 398.537 1372.43 400.064L1365.04 408.787C1365.53 408.639 1366.57 408.59 1368.09 408.59C1374.16 408.59 1378.98 409.97 1382.58 412.779C1386.18 415.539 1388 419.087 1388 423.423C1388 429.239 1385.54 433.773 1380.71 436.976C1375.83 440.179 1368.54 441.805 1358.78 441.805C1353.61 441.805 1349.17 441.362 1345.52 440.475V429.83C1348.43 430.323 1351.98 430.569 1356.17 430.569C1363.9 430.569 1367.75 428.056 1367.75 422.98C1367.75 418.446 1364.15 416.13 1356.96 416.13C1354.79 416.13 1353.31 416.179 1352.42 416.327V409.132L1359.42 400.212C1340.45 399.079 1325.42 392.179 1314.28 379.514C1302.89 366.997 1297.23 350.438 1297.23 329.789C1297.23 308.056 1303.29 290.857 1315.46 278.192C1327.58 265.527 1344 259.219 1364.59 259.219C1381.3 259.219 1395.44 263.654 1407.08 272.475C1418.95 281.445 1426.1 294.159 1428.51 310.619H1396.09C1394.06 303.03 1390.32 297.165 1384.8 293.075C1379.28 288.985 1372.58 286.915 1364.59 286.915C1353.7 286.915 1345.33 290.66 1339.46 298.102C1333.6 305.543 1330.64 316.138 1330.64 329.789C1330.64 343.44 1333.6 353.986 1339.46 361.477C1345.33 368.968 1353.7 372.664 1364.59 372.664C1372.92 372.664 1380.02 370.249 1385.83 365.469C1391.65 360.639 1395.3 353.986 1396.82 345.362L1396.73 345.411Z" fill="white"/>
<path d="M1580.94 397.354H1546.98L1539 373.847H1482.87L1475.08 397.354H1442.26L1491.99 262.274H1530.13L1580.99 397.354H1580.94ZM1498.64 247.145C1495.24 247.145 1493.46 249.51 1493.32 254.143H1475.28C1475.28 245.568 1477.1 239.014 1480.7 234.628C1484.3 230.192 1489.28 227.975 1495.58 227.975C1499.87 227.975 1505.34 229.256 1511.9 231.769C1516.43 233.79 1520.22 234.825 1523.28 234.825C1526.68 234.825 1528.45 232.558 1528.6 227.975H1546.64C1546.64 236.599 1544.82 243.104 1541.22 247.49C1537.62 251.925 1532.64 254.143 1526.34 254.143C1522.54 254.143 1517.02 252.812 1509.83 250.151C1504.9 248.131 1501.15 247.096 1498.64 247.096V247.145ZM1499.58 323.974L1491.79 347.136H1529.93L1522.15 323.974C1519.73 317.124 1515.94 305.74 1510.76 289.822C1504.06 310.422 1500.31 321.806 1499.58 323.974Z" fill="white"/>
<path d="M1661.76 400.409C1641.16 400.409 1624.45 393.953 1611.69 381.042C1598.93 368.032 1592.52 350.931 1592.52 329.839C1592.52 308.746 1598.93 291.646 1611.69 278.636C1624.45 265.724 1641.16 259.268 1661.76 259.268C1682.36 259.268 1699.07 265.724 1711.83 278.636C1724.59 291.646 1731 308.746 1731 329.839C1731 350.931 1724.59 368.032 1711.83 381.042C1699.07 393.953 1682.36 400.409 1661.76 400.409ZM1635.79 361.132C1642.24 368.721 1650.92 372.516 1661.76 372.516C1672.6 372.516 1681.23 368.721 1687.93 361.132C1694.48 353.691 1697.78 343.243 1697.78 329.839C1697.78 316.434 1694.48 305.987 1687.93 298.545C1681.23 290.956 1672.5 287.161 1661.76 287.161C1651.02 287.161 1642.24 290.956 1635.79 298.545C1629.23 305.987 1625.93 316.434 1625.93 329.839C1625.93 343.243 1629.23 353.691 1635.79 361.132Z" fill="white"/>
</g>
<defs>
<linearGradient id="paint0_linear_16_97" x1="1.52508e-05" y1="393.561" x2="417.718" y2="415.816" gradientUnits="userSpaceOnUse">
<stop stop-color="#4273BD"/>
<stop offset="1" stop-color="#609CF6"/>
</linearGradient>
<linearGradient id="paint1_linear_16_97" x1="1.52508e-05" y1="393.561" x2="417.718" y2="415.816" gradientUnits="userSpaceOnUse">
<stop stop-color="#4273BD"/>
<stop offset="1" stop-color="#609CF6"/>
</linearGradient>
<clipPath id="clip0_16_97">
<rect width="1731" height="441.756" fill="white"/>
</clipPath>
</defs>
</svg>
